<svg xmlns="http://www.w3.org/2000/svg" xml:space="preserve" width="256" height="256" viewBox="0 0 67.73 67.73">
    <path d="M49.13 1.4 27.7 14.38V10h-3.94v6.75l-14 8.46h4.44l-.5 39.77 36.28-.65 1.22-40 1.12-.06-3.18-22.86zm-1.69 20.28 1.6 1.8.04 1-.6.26.03.68-.6.26.03.69-.6.26.03.68-.6.26.04.69-.6.26.03.68-.6.26.03.69-.6.26.03.68-.6.26.03.69-.6.26.03.69-.6.25.04.69-.6.26.03.69-.6.25.03.7-.6.25.03.69-.6.26.03.68-.6.26.03.69-.6.26.03.68-.6.26.04.69-.6.26.03.68-.16.07.98 1.96c.58 1.14 1 1.93 1.4 2.75a.46.46 0 0 0-.01.37c.05.13.16.19.27.17.35.74.7 1.57 1.15 2.74a.47.47 0 0 0-.04.41c.05.12.15.18.26.17l.22.58.82 2.2a.47.47 0 0 0-.05.42c.05.11.16.18.27.17a13.7 13.7 0 0 0 1.22 2.77c.44.62.56.88-.36 1.56l-2.33 1.73c-.5.37-1.25.36-1-.72.26-1.07-.34-3.5-1.25-5.4-.72-1.5-2-4.17-3.47-7.7l-.1.05.22.54-.67.3.21.55-.67.3.22.55-.68.3.22.55-.68.3.22.55-.68.3.22.54-.67.31.21.54-.67.3.21.55-.67.3.21.55-.67.3.21.55-.67.3.22.55-.68.3.22.55-.68.3.22.55-.98.44-.08-.02.1.33s-3.3 4.33-5.81 6.43c-.61.62-.25-1.3-.25-1.3s-.94-.07-2.18-.8c-1.23-.73-5.47-3.7-5.6-3.73-1.04.25-1.74.3-1.1-.35.64-.64 2.27-2.16 3.26-3.34.98-1.18 3.77-4.45 3.77-4.46l6.86-7.6.01-.01 4.05-4.51c-1.47-3.46-2.8-6.4-2.88-6.56l-.08.06c-.27.2-.4 0-.57-.41-.17-.42-.49-1.6-1.83-.83-2.2 1.19-2.33 2.24-3.23 2.92-.9.68-1.16.53-1.35.06a4392.69 4392.69 0 0 1-.86-2.1c-.22-.52-.1-.74.84-1.45.93-.7 1.23-.27 2.41-1.17.66-.5 1.2-1.92 2-2.53.75-.57 2.94-2.07 4.99-2.14a4.12 4.12 0 0 1 .4 0c2.15.15 4.42 1.8 5.41 2.7 1 .9-.22.66-.6.45-.37-.2-2.27-1.1-3.3-1.05-1.04.05-2.33.73-1.9 1.87.42 1.1.65 1.36.26 1.69l2.6 6.22 11.69-13.65zm-24.7 31.2c-.79.09-1.47 1.24-2.3 2.27-.93 1.18.18 1.1 1.76 1.91a60 60 0 0 1 4.66 2.99c.88-.09 1.12-.65 1.62-1.23s-.2-.92-.82-1.64c-.62-.73-.8-1.37-1.08-2.32-.28-.94-.43-1.06-.96-1.2l-2.53-.74a.88.88 0 0 0-.35-.03z" style="display:inline;opacity:1;fill-opacity:1;stroke:#fff;stroke-width:.284015;stroke-opacity:0" transform="translate(-.3 -.04)"/>
</svg>